# xmcd
#
# Track frame offsets:
#	150
#	14097
#	25107
#	39045
#	50902
#	61377
#	73825
#	84475
#	98000
#	111267
#	124790
#	136342
#	148780
#	157692
#	168655
#	179195
#	190695
#	203775
#	215055
#	227997
#	240880
#
# Disc length: 3313 seconds
#
# Revision: 1
# Processed by: cddbd v1.5.1PL0 Copyright (c) Steve Scherf et al.
# Submitted via: audiograbber 1.83.01
#
DISCID=2f0cef15
DTITLE=Elmore James and Eddie Taylor - South Side Bules
DYEAR=1900
DGENRE=Blues
TTITLE0=The 12 Year Old Man
TTITLE1=Comming Home
TTITLE2=It Hurts Me Too
TTITLE3=Knocking At Your Door
TTITLE4=Elmore's Contribution To Jazz
TTITLE5=Cry For Me Baby
TTITLE6=Take Me Where You Go
TTITLE7=Bad Boy
TTITLE8=Ride'em On Down
TTITLE9=Big Town Playboy
TTITLE10=You'll Always Have A Home
TTITLE11=Don't Knock My Door
TTITLE12=I'm Gonna Love You
TTITLE13=Looking For Trouble
TTITLE14=Find My Baby
TTITLE15=Stroll Out West
TTITLE16=Trainfare
TTITLE17=Leave This Neighborhood
TTITLE18=I'm Sittin' Here
TTITLE19=Do You Want Me To Cry
TTITLE20=Somethin' For Nothin'
EXTD=Released in Japan in 1991
EXTT0=Elmore James
EXTT1=Elmore James
EXTT2=Elmore James
EXTT3=Elmore James
EXTT4=Elmore James
EXTT5=Elmore James
EXTT6=Elmore James
EXTT7=Eddie Taylor
EXTT8=Eddie Taylor
EXTT9=Eddie Taylor
EXTT10=Eddie Taylor
EXTT11=Eddie Taylor
EXTT12=Eddie Taylor
EXTT13=Eddie Taylor
EXTT14=Eddie Taylor
EXTT15=Eddie Taylor
EXTT16=Eddie Taylor
EXTT17=Eddie Taylor
EXTT18=Eddie Taylor
EXTT19=Eddie Taylor
EXTT20=Eddie Taylor
PLAYORDER=
